<svg xmlns="http://www.w3.org/2000/svg" width="27.023" height="22.35" viewBox="0 0 27.023 22.35">
  <g id="Group_1775" data-name="Group 1775" transform="translate(-115.977 52.411) rotate(180)">
    <g id="arrow-back-outline" transform="translate(-151 20.064)">
      <path id="Path_479" data-name="Path 479" d="M33.334,19.577H13.3l6.131-6.96a1.539,1.539,0,0,0-.22-2.251,1.759,1.759,0,0,0-2.381.208L8.388,20.152a1.882,1.882,0,0,0-.152.239c0,.08,0,.128-.118.208a1.456,1.456,0,0,0,0,1.149c0,.08,0,.128.118.208a1.881,1.881,0,0,0,.152.239l8.445,9.578a1.73,1.73,0,0,0,1.3.575,1.75,1.75,0,0,0,1.081-.367,1.572,1.572,0,0,0,.6-1.082,1.538,1.538,0,0,0-.384-1.168L13.3,22.77H33.334a1.6,1.6,0,1,0,0-3.193Z" transform="translate(0)"/>
    </g>
    <g id="arrow-back-outline-2" data-name="arrow-back-outline" transform="translate(-151 20.064)">
      <path id="Path_479-2" data-name="Path 479" d="M33.334,19.577H13.3l6.131-6.96a1.539,1.539,0,0,0-.22-2.251,1.759,1.759,0,0,0-2.381.208L8.388,20.152a1.882,1.882,0,0,0-.152.239c0,.08,0,.128-.118.208a1.456,1.456,0,0,0,0,1.149c0,.08,0,.128.118.208a1.881,1.881,0,0,0,.152.239l8.445,9.578a1.73,1.73,0,0,0,1.3.575,1.75,1.75,0,0,0,1.081-.367,1.572,1.572,0,0,0,.6-1.082,1.538,1.538,0,0,0-.384-1.168L13.3,22.77H33.334a1.6,1.6,0,1,0,0-3.193Z" transform="translate(0)"/>
    </g>
  </g>
</svg>
